<svg width="72" height="72" viewBox="0 0 72 72" fill="none" xmlns="http://www.w3.org/2000/svg">
<g clip-path="url(#clip0_2220_1933)">
<path d="M0 36C0 16.1177 16.1177 0 36 0V0C55.8823 0 72 16.1177 72 36V36C72 55.8823 55.8823 72 36 72V72C16.1177 72 0 55.8823 0 36V36Z" fill="#33343F"/>
<path fill-rule="evenodd" clip-rule="evenodd" d="M36.0003 42.5022C42.6277 42.5022 48.0003 36.6819 48.0003 29.5022C48.0003 22.3225 42.6277 16.5022 36.0003 16.5022C29.3729 16.5022 24.0003 22.3225 24.0003 29.5022C24.0003 36.6819 29.3729 42.5022 36.0003 42.5022ZM36.0004 87.2393C51.8886 87.2393 64.7685 78.285 64.7685 67.2393C64.7685 56.1936 51.8886 47.2393 36.0004 47.2393C20.1123 47.2393 7.23242 56.1936 7.23242 67.2393C7.23242 78.285 20.1123 87.2393 36.0004 87.2393Z" fill="white" fill-opacity="0.34"/>
</g>
<path d="M36 71.75C16.2558 71.75 0.25 55.7442 0.25 36C0.25 16.2558 16.2558 0.25 36 0.25C55.7442 0.25 71.75 16.2558 71.75 36C71.75 55.7442 55.7442 71.75 36 71.75Z" stroke="white" stroke-opacity="0.04" stroke-width="0.5"/>
<defs>
<clipPath id="clip0_2220_1933">
<path d="M0 36C0 16.1177 16.1177 0 36 0V0C55.8823 0 72 16.1177 72 36V36C72 55.8823 55.8823 72 36 72V72C16.1177 72 0 55.8823 0 36V36Z" fill="white"/>
</clipPath>
</defs>
</svg>
